<svg width="1201" height="950" viewBox="0 0 1201 950" fill="none" xmlns="http://www.w3.org/2000/svg">
<path d="M260.11 831.237C259.324 783.978 160.902 891.81 98.4527 846.568C60.9253 819.381 87.4895 750.883 64.1478 724.478C51.9041 709.796 43.9163 620.851 139.194 614.38C234.471 607.908 112.69 524.965 151.343 471.484C190.314 417.563 287.885 471.361 293.349 512.106C298.813 552.851 280.54 578.394 383.775 644.614C466.364 697.59 390.961 830.527 333.922 863.815C296.042 894.531 268.998 859.002 260.11 831.237Z" fill="#F1F1F1"/>
<path d="M1074.5 17.5676C1091.11 -3.38154 1126.79 -0.788934 1139.51 1.53055C1179.16 8.76228 1197.3 32.9183 1200.46 69.4891C1203.62 106.06 1165.25 146.694 1139.51 151.66C1113.78 156.627 1118.29 146.694 1116.48 117.347C1114.68 88.0003 1074.5 95.6756 1063.66 83.4853C1052.82 71.2951 1053.73 43.7541 1074.5 17.5676Z" fill="#F1F1F1"/>
<path d="M101.979 452.183C96.5443 443.409 102.101 430.642 104.587 426.27C112.338 412.637 123.432 409.063 137.082 412.572C150.733 416.08 160.478 435.355 158.945 445.436C157.412 455.517 154.4 452.592 143.541 449.508C132.682 446.424 130.26 462.154 124.443 464.576C118.627 466.997 108.772 463.15 101.979 452.183Z" fill="#F1F1F1"/>
</svg>
