<svg id="圖層_1" data-name="圖層 1" xmlns="http://www.w3.org/2000/svg" viewBox="0 0 271.11 65.4"><defs><style>.cls-1{fill:#231815;}</style></defs><path class="cls-1" d="M92,40.91H82.83L81.39,45H75.51l8.4-22.68h7L99.28,45H93.4ZM84.29,36.7H90.5l-3.1-9Z"/><path class="cls-1" d="M114.36,36.46V45h-5.85V22.36h8.93q4.49,0,6.57,1.51a5.45,5.45,0,0,1,2.09,4.75A5.92,5.92,0,0,1,125,32.31a6.3,6.3,0,0,1-3.27,2.13,4.32,4.32,0,0,1,2.15,1.23,11.75,11.75,0,0,1,1.92,2.93L129,45h-6.22L120,39.4a6.19,6.19,0,0,0-1.69-2.32,3.77,3.77,0,0,0-2.29-.62Zm2.46-4a4,4,0,0,0,2.63-.69,2.78,2.78,0,0,0,.8-2.25,2.7,2.7,0,0,0-.8-2.21,4.07,4.07,0,0,0-2.63-.67h-2.46v5.82Z"/><path class="cls-1" d="M134.58,22.36h20.9v4.42H148V45h-5.84V26.78h-7.54Z"/><path class="cls-1" d="M164.73,22.36h5.85V45h-5.85Z"/><path class="cls-1" d="M182.52,22.36h5.85V40.62h10.27V45H182.52Z"/><path class="cls-1" d="M208.57,22.36h5.84V45h-5.84Z"/><path class="cls-1" d="M225.25,22.36h19.06V25.9L232.15,40.62h12.51V45H224.9V41.5l12.17-14.72H225.25Z"/><path class="cls-1" d="M255.14,22.36h15.78v4.42H261V31h9.34v4.42H261v5.2h10.26V45H255.14Z"/><polygon class="cls-1" points="37.76 0 0 65.39 25.87 65.39 37.09 65.39 37.76 64.24 54.69 34.92 72.28 65.39 74.18 65.39 75.44 65.39 75.51 65.39 37.76 0"/></svg>