<svg width="25" height="25" viewBox="0 0 25 25" fill="none" xmlns="http://www.w3.org/2000/svg">
<circle cx="12.5" cy="12.5" r="12.5" fill="white"/>
<path d="M25 12.5C25 19.4036 19.4036 25 12.5 25C5.59642 25 0 19.4036 0 12.5C0 5.59642 5.59642 0 12.5 0C19.4036 0 25 5.59642 25 12.5ZM11.0541 19.1186L20.3283 9.84446C20.6432 9.52954 20.6432 9.0189 20.3283 8.70398L19.1879 7.56351C18.8729 7.24854 18.3623 7.24854 18.0473 7.56351L10.4839 15.1269L6.95267 11.5957C6.63775 11.2808 6.12712 11.2808 5.81215 11.5957L4.67167 12.7362C4.35675 13.0511 4.35675 13.5617 4.67167 13.8767L9.91361 19.1186C10.2286 19.4336 10.7392 19.4336 11.0541 19.1186V19.1186Z" fill="#00B569"/>
</svg>
