<svg width="107" height="79" viewBox="0 0 107 79" fill="none" xmlns="http://www.w3.org/2000/svg">
<rect x="4.76367" width="98.2845" height="78.67" fill="#F4B942"/>
<ellipse cx="4.59935" cy="2.31405" rx="3.66478" ry="2.31405" fill="#F4B942"/>
<ellipse cx="102.884" cy="2.31405" rx="3.66478" ry="2.31405" fill="#F4B942"/>
<ellipse cx="4.59935" cy="6.94198" rx="3.66478" ry="2.31405" fill="#F4B942"/>
<ellipse cx="102.884" cy="6.94198" rx="3.66478" ry="2.31405" fill="#F4B942"/>
<ellipse cx="4.59935" cy="11.5699" rx="3.66478" ry="2.31405" fill="#F4B942"/>
<ellipse cx="102.884" cy="11.5699" rx="3.66478" ry="2.31405" fill="#F4B942"/>
<ellipse cx="4.59935" cy="16.1978" rx="3.66478" ry="2.31405" fill="#F4B942"/>
<ellipse cx="102.884" cy="16.1978" rx="3.66478" ry="2.31405" fill="#F4B942"/>
<ellipse cx="4.59935" cy="20.8258" rx="3.66478" ry="2.31405" fill="#F4B942"/>
<ellipse cx="102.884" cy="20.8258" rx="3.66478" ry="2.31405" fill="#F4B942"/>
<ellipse cx="4.59935" cy="25.4537" rx="3.66478" ry="2.31405" fill="#F4B942"/>
<ellipse cx="102.884" cy="25.4537" rx="3.66478" ry="2.31405" fill="#F4B942"/>
<ellipse cx="4.59935" cy="30.0816" rx="3.66478" ry="2.31405" fill="#F4B942"/>
<ellipse cx="102.884" cy="30.0816" rx="3.66478" ry="2.31405" fill="#F4B942"/>
<ellipse cx="4.59935" cy="34.7096" rx="3.66478" ry="2.31405" fill="#F4B942"/>
<ellipse cx="102.884" cy="34.7096" rx="3.66478" ry="2.31405" fill="#F4B942"/>
<ellipse cx="4.59935" cy="39.3375" rx="3.66478" ry="2.31405" fill="#F4B942"/>
<ellipse cx="102.884" cy="39.3375" rx="3.66478" ry="2.31405" fill="#F4B942"/>
<ellipse cx="4.59935" cy="43.9654" rx="3.66478" ry="2.31405" fill="#F4B942"/>
<ellipse cx="102.884" cy="43.9654" rx="3.66478" ry="2.31405" fill="#F4B942"/>
<ellipse cx="4.59935" cy="48.5933" rx="3.66478" ry="2.31405" fill="#F4B942"/>
<ellipse cx="102.884" cy="48.5933" rx="3.66478" ry="2.31405" fill="#F4B942"/>
<ellipse cx="4.59935" cy="53.2213" rx="3.66478" ry="2.31405" fill="#F4B942"/>
<ellipse cx="102.884" cy="53.2213" rx="3.66478" ry="2.31405" fill="#F4B942"/>
<ellipse cx="4.59935" cy="57.8492" rx="3.66478" ry="2.31405" fill="#F4B942"/>
<ellipse cx="102.884" cy="57.8492" rx="3.66478" ry="2.31405" fill="#F4B942"/>
<ellipse cx="4.59935" cy="62.4771" rx="3.66478" ry="2.31405" fill="#F4B942"/>
<ellipse cx="102.884" cy="62.4771" rx="3.66478" ry="2.31405" fill="#F4B942"/>
<ellipse cx="4.59935" cy="67.1051" rx="3.66478" ry="2.31405" fill="#F4B942"/>
<ellipse cx="102.884" cy="67.1051" rx="3.66478" ry="2.31405" fill="#F4B942"/>
<ellipse cx="4.59935" cy="71.733" rx="3.66478" ry="2.31405" fill="#F4B942"/>
<ellipse cx="102.884" cy="71.733" rx="3.66478" ry="2.31405" fill="#F4B942"/>
<ellipse cx="4.59935" cy="76.3609" rx="3.66478" ry="2.31405" fill="#F4B942"/>
<ellipse cx="102.884" cy="76.3609" rx="3.66478" ry="2.31405" fill="#F4B942"/>
</svg>
