<svg width="1303" height="605" viewBox="0 0 1303 605" fill="none" xmlns="http://www.w3.org/2000/svg">
<path d="M55.001 53.7917C48.2364 44.0709 55.1534 29.9256 58.2479 25.0809C67.8958 9.97588 81.7044 6.01641 98.6953 9.90402C115.686 13.7916 127.816 35.1478 125.908 46.3171C124.001 57.4864 120.251 54.245 106.734 50.8284C93.2174 47.4117 90.2027 64.8403 82.963 67.523C75.7234 70.2057 63.4567 65.9427 55.001 53.7917Z" fill="#F1F1F1"/>
<path d="M1145.98 85.4957C1166.66 62.2846 1211.07 65.1571 1226.9 67.7271C1276.26 75.7396 1298.84 102.504 1302.77 143.023C1306.7 183.542 1258.94 228.564 1226.9 234.067C1194.87 239.569 1200.49 228.564 1198.24 196.048C1195.99 163.533 1145.98 172.037 1132.49 158.53C1119 145.024 1120.13 114.509 1145.98 85.4957Z" fill="#F1F1F1"/>
<path d="M323.765 473.774C322.788 421.413 200.279 540.887 122.547 490.76C75.8354 460.637 108.901 384.744 79.8464 355.488C64.6064 339.221 54.6637 240.673 173.258 233.503C291.853 226.332 140.268 134.434 188.381 75.1785C236.889 15.4359 358.339 75.0417 365.14 120.186C371.941 165.331 349.196 193.632 477.696 267.001C580.496 325.697 486.639 472.987 415.642 509.87C368.492 543.902 334.83 504.537 323.765 473.774Z" fill="#F1F1F1"/>
</svg>
