<svg width="25" height="26" viewBox="0 0 25 26" fill="none" xmlns="http://www.w3.org/2000/svg">
<path d="M23.9204 21.7972L18.3094 16.1863C19.5854 14.292 20.2149 11.9253 19.8779 9.40345C19.3032 5.11392 15.7876 1.62314 11.4938 1.07953C5.10991 0.271732 -0.258213 5.63985 0.54963 12.0238C1.09338 16.3194 4.58463 19.8378 8.87463 20.4097C11.3965 20.7467 13.7637 20.1174 15.6574 18.8413L21.2684 24.4522C22.0006 25.1844 23.1879 25.1844 23.9201 24.4522C24.6516 23.7191 24.6516 22.5284 23.9204 21.7972ZM4.17663 10.7488C4.17663 7.44032 6.86819 4.74876 10.1766 4.74876C13.4851 4.74876 16.1766 7.44032 16.1766 10.7488C16.1766 14.0572 13.4851 16.7488 10.1766 16.7488C6.86819 16.7488 4.17663 14.0581 4.17663 10.7488Z" fill="#6E7491"/>
</svg>
