<svg width="42" height="42" viewBox="0 0 42 42" fill="none" xmlns="http://www.w3.org/2000/svg">
<path fill-rule="evenodd" clip-rule="evenodd" d="M21 42C32.598 42 42 32.598 42 21C42 9.40202 32.598 0 21 0C9.40202 0 0 9.40202 0 21C0 32.598 9.40202 42 21 42ZM25.619 16C25.619 18.7613 23.4021 21 20.6667 21C17.9312 21 15.7143 18.7613 15.7143 16C15.7143 13.2387 17.9312 11 20.6667 11C23.4021 11 25.619 13.2387 25.619 16ZM12 29.6445C12 25.9063 15.0028 22.875 18.7051 22.875H22.6283C26.331 22.875 29.3333 25.9063 29.3333 29.6445C29.3333 30.3945 28.7336 31 27.9931 30.9988H13.341C12.6005 30.9988 12 30.3922 12 29.6445Z" fill="#4153BB"/>
</svg>
