<svg width="100" height="96" viewBox="0 0 100 96" fill="none" xmlns="http://www.w3.org/2000/svg">
<rect x="3.62573" width="93.0601" height="95.0784" fill="#F4B942"/>
<ellipse cx="3.46997" cy="2.7967" rx="3.46997" ry="2.7967" fill="#F4B942"/>
<ellipse cx="96.53" cy="2.7967" rx="3.46997" ry="2.7967" fill="#F4B942"/>
<ellipse cx="3.46997" cy="8.3899" rx="3.46997" ry="2.7967" fill="#F4B942"/>
<ellipse cx="96.53" cy="8.3899" rx="3.46997" ry="2.7967" fill="#F4B942"/>
<ellipse cx="3.46997" cy="13.9831" rx="3.46997" ry="2.7967" fill="#F4B942"/>
<ellipse cx="96.53" cy="13.9831" rx="3.46997" ry="2.7967" fill="#F4B942"/>
<ellipse cx="3.46997" cy="19.5762" rx="3.46997" ry="2.7967" fill="#F4B942"/>
<ellipse cx="96.53" cy="19.5762" rx="3.46997" ry="2.7967" fill="#F4B942"/>
<ellipse cx="3.46997" cy="25.1694" rx="3.46997" ry="2.7967" fill="#F4B942"/>
<ellipse cx="96.53" cy="25.1694" rx="3.46997" ry="2.7967" fill="#F4B942"/>
<ellipse cx="3.46997" cy="30.7626" rx="3.46997" ry="2.7967" fill="#F4B942"/>
<ellipse cx="96.53" cy="30.7626" rx="3.46997" ry="2.7967" fill="#F4B942"/>
<ellipse cx="3.46997" cy="36.3558" rx="3.46997" ry="2.7967" fill="#F4B942"/>
<ellipse cx="96.53" cy="36.3558" rx="3.46997" ry="2.7967" fill="#F4B942"/>
<ellipse cx="3.46997" cy="41.949" rx="3.46997" ry="2.7967" fill="#F4B942"/>
<ellipse cx="96.53" cy="41.949" rx="3.46997" ry="2.7967" fill="#F4B942"/>
<ellipse cx="3.46997" cy="47.5422" rx="3.46997" ry="2.7967" fill="#F4B942"/>
<ellipse cx="96.53" cy="47.5422" rx="3.46997" ry="2.7967" fill="#F4B942"/>
<ellipse cx="3.46997" cy="53.1354" rx="3.46997" ry="2.7967" fill="#F4B942"/>
<ellipse cx="96.53" cy="53.1354" rx="3.46997" ry="2.7967" fill="#F4B942"/>
<ellipse cx="3.46997" cy="58.7286" rx="3.46997" ry="2.7967" fill="#F4B942"/>
<ellipse cx="96.53" cy="58.7286" rx="3.46997" ry="2.7967" fill="#F4B942"/>
<ellipse cx="3.46997" cy="64.3217" rx="3.46997" ry="2.7967" fill="#F4B942"/>
<ellipse cx="96.53" cy="64.3217" rx="3.46997" ry="2.7967" fill="#F4B942"/>
<ellipse cx="3.46997" cy="69.9149" rx="3.46997" ry="2.7967" fill="#F4B942"/>
<ellipse cx="96.53" cy="69.9149" rx="3.46997" ry="2.7967" fill="#F4B942"/>
<ellipse cx="3.46997" cy="75.5081" rx="3.46997" ry="2.7967" fill="#F4B942"/>
<ellipse cx="96.53" cy="75.5081" rx="3.46997" ry="2.7967" fill="#F4B942"/>
<ellipse cx="3.46997" cy="81.1013" rx="3.46997" ry="2.7967" fill="#F4B942"/>
<ellipse cx="96.53" cy="81.1013" rx="3.46997" ry="2.7967" fill="#F4B942"/>
<ellipse cx="3.46997" cy="86.6945" rx="3.46997" ry="2.7967" fill="#F4B942"/>
<ellipse cx="96.53" cy="86.6945" rx="3.46997" ry="2.7967" fill="#F4B942"/>
<ellipse cx="3.46997" cy="92.2877" rx="3.46997" ry="2.7967" fill="#F4B942"/>
<ellipse cx="96.53" cy="92.2877" rx="3.46997" ry="2.7967" fill="#F4B942"/>
</svg>
